HIERARCHY
ROOT Hips
{
	OFFSET 0.000000 0.000000 0.000000
	CHANNELS 6 Xposition Yposition Zposition Zrotation Yrotation Xrotation 
	JOINT LHipJoint
	{
		OFFSET 0.000000 0.000000 0.000000
		CHANNELS 3 Zrotation Yrotation Xrotation
		JOINT LeftUpLeg
		{
			OFFSET 1.363060 -1.794630 0.839290
			CHANNELS 3 Zrotation Yrotation Xrotation
			JOINT LeftLeg
			{
				OFFSET 2.448110 -6.726130 0.000000
				CHANNELS 3 Zrotation Yrotation Xrotation
				JOINT LeftFoot
				{
					OFFSET 2.562200 -7.039590 0.000000
					CHANNELS 3 Zrotation Yrotation Xrotation
					JOINT LeftToeBase
					{
						OFFSET 0.157640 -0.433110 2.322550
						CHANNELS 3 Zrotation Yrotation Xrotation
						End Site
						{
							OFFSET 0.000000 0.000000 0.000000
						}
					}
				}
			}
		}
	}
	JOINT RHipJoint
	{
		OFFSET 0.000000 0.000000 0.000000
		CHANNELS 3 Zrotation Yrotation Xrotation
		JOINT RightUpLeg
		{
			OFFSET -1.305520 -1.794630 0.839290
			CHANNELS 3 Zrotation Yrotation Xrotation
			JOINT RightLeg
			{
				OFFSET -2.542530 -6.985550 0.000000
				CHANNELS 3 Zrotation Yrotation Xrotation
				JOINT RightFoot
				{
					OFFSET -2.568260 -7.056230 0.000000
					CHANNELS 3 Zrotation Yrotation Xrotation
					JOINT RightToeBase
					{
						OFFSET -0.164730 -0.452590 2.363150
						CHANNELS 3 Zrotation Yrotation Xrotation
						End Site
						{
							OFFSET 0.000000 0.000000 0.000000
						}
					}
				}
			}
		}
	}
}
MOTION
Frames: 16
Frame Time: 0.008333
1.731700 17.200045 0.527496 -26.235060 -81.793606 15.733101 -11.178309 3.005038 0.900432 -5.293362 11.938848 5.574644 -0.752214 0.245668 11.691812 2.736189 17.180155 -9.279663 -0.502900 0.000000 -32.920601 10.724774 -2.649978 -3.727444 -3.970665 -29.817540 -6.125044 -0.202787 -2.985392 42.718407 -1.230766 -4.358852 15.116106 -1.262400 -0.000000 -83.483000
1.742340 17.194425 0.559323 -26.806831 -81.260766 16.041554 -11.198774 2.973658 0.866749 -4.981987 11.931856 5.850794 -0.741970 0.252015 11.712648 2.670533 16.739427 -9.387227 -0.537400 -0.000000 -33.073800 10.796732 -2.525163 -3.862176 -4.113125 -30.310274 -7.646341 -0.339676 -3.130384 45.663527 -1.355282 -4.685105 16.322176 -1.387000 0.000000 -82.045400
1.754983 17.189304 0.589580 -27.525600 -80.770671 16.513384 -11.222151 2.933196 0.826458 -4.657372 11.935343 6.087107 -0.727413 0.258145 11.767088 2.611003 16.337728 -9.494142 -0.569801 -0.000000 -33.222500 10.855214 -2.396005 -3.985010 -4.130373 -30.660926 -9.288749 -0.463090 -3.286697 48.677864 -1.478154 -5.136227 17.142366 -1.556000 -0.000000 -80.225401
1.769942 17.184862 0.618324 -28.401926 -80.333017 17.155380 -11.248811 2.884147 0.778971 -4.322508 11.945153 6.291489 -0.707647 0.264782 11.849853 2.560107 15.991690 -9.595977 -0.599200 0.000000 -33.358700 10.900951 -2.265940 -4.099371 -4.021333 -30.878209 -11.063346 -0.578382 -3.460846 51.766283 -1.588684 -5.662729 17.515046 -1.745100 0.000001 -78.231000
1.787508 17.181110 0.645679 -29.441268 -79.951738 17.964566 -11.279329 2.827134 0.721327 -3.975975 11.959255 6.483990 -0.681865 0.273145 11.950802 2.519338 15.711777 -9.686772 -0.624200 0.000000 -33.481200 10.935445 -2.136500 -4.212246 -3.796752 -30.982517 -12.964264 -0.692981 -3.657251 54.925803 -1.678608 -6.204991 17.416034 -1.920700 0.000000 -76.289600
1.807570 17.178350 0.671705 -30.660818 -79.637494 18.970478 -11.313021 2.763525 0.656685 -3.623027 11.992055 6.641283 -0.651132 0.281674 12.070141 2.488076 15.496294 -9.765458 -0.645400 0.000000 -33.589000 10.960845 -2.010900 -4.314995 -3.434256 -30.955901 -15.035232 -0.815612 -3.878130 58.169582 -1.744493 -6.723658 16.853926 -2.056999 -0.000000 -74.517000
1.830356 17.176376 0.696496 -32.051186 -79.382886 20.149263 -11.350166 2.694110 0.579913 -3.258160 12.044220 6.794775 -0.615204 0.291993 12.192447 2.465676 15.342373 -9.824010 -0.660600 0.000000 -33.692200 10.979285 -1.886575 -4.417922 -2.959934 -30.832457 -17.246605 -0.953328 -4.122694 61.479791 -1.782885 -7.157086 15.876544 -2.123500 0.000001 -73.041900
1.855513 17.175315 0.719986 -33.610044 -79.186469 21.506882 -11.389468 2.620691 0.493596 -2.883018 12.129786 6.929504 -0.575701 0.302742 12.314843 2.449641 15.236041 -9.860986 -0.670100 -0.000000 -33.802100 10.992747 -1.763018 -4.515850 -2.367428 -30.613343 -19.617260 -1.112134 -4.388200 64.849844 -1.794066 -7.472712 14.552380 -2.109100 0.000000 -71.886800
1.883172 17.174845 0.742392 -35.328724 -79.026325 23.010325 -11.432562 2.543850 0.392281 -2.481369 12.246220 7.087090 -0.532072 0.316167 12.420536 2.437541 15.162454 -9.868738 -0.671200 -0.000000 -33.938199 11.001434 -1.636062 -4.624091 -1.692745 -30.356067 -22.087825 -1.294304 -4.670029 68.238927 -1.777145 -7.626620 12.967508 -2.007100 -0.000001 -71.068700
1.912227 17.175394 0.763156 -37.143809 -78.908140 24.640812 -11.473371 2.466859 0.288457 -2.080358 12.410517 7.194552 -0.489031 0.327456 12.525229 2.426374 15.103686 -9.855084 -0.666900 0.000000 -34.114000 11.007194 -1.503461 -4.719544 -0.902497 -30.020959 -24.740268 -1.504186 -4.963346 71.653225 -1.738665 -7.636780 11.233383 -1.842300 0.000001 -70.532700
1.943048 17.176341 0.782814 -39.039101 -78.788005 26.328508 -11.517979 2.389135 0.171970 -1.642573 12.599441 7.340654 -0.443508 0.342092 12.604543 2.413817 15.043373 -9.810313 -0.653500 -0.000000 -34.352200 11.005806 -1.360317 -4.835988 -0.061914 -29.721874 -27.443999 -1.737648 -5.262434 75.015426 -1.677246 -7.470047 9.433708 -1.622901 0.000000 -70.247000
1.975410 17.177566 0.801518 -40.964129 -78.645122 28.018124 -11.567967 2.311081 0.045624 -1.161748 12.803273 7.525980 -0.395850 0.360456 12.660800 2.397740 14.966500 -9.737359 -0.631601 0.000000 -34.666399 10.993328 -1.204512 -4.977576 0.824263 -29.491203 -30.181952 -1.991968 -5.562502 78.288416 -1.597356 -7.145713 7.655262 -1.376400 -0.000001 -70.115100
2.007824 17.179673 0.818499 -42.784585 -78.480511 29.623977 -11.615893 2.236030 -0.072446 -0.678614 13.011652 7.673165 -0.350236 0.377645 12.718387 2.377975 14.870458 -9.649614 -0.605899 -0.000000 -35.053800 10.967051 -1.033576 -5.123356 1.781977 -29.311642 -33.035053 -2.266450 -5.859999 81.461728 -1.508141 -6.719217 5.988013 -1.135500 0.000000 -70.092399
2.041492 17.181733 0.835075 -44.519533 -78.247013 31.096293 -11.675307 2.159503 -0.196941 -0.133254 13.193909 7.883438 -0.300785 0.401165 12.761464 2.353350 14.742998 -9.543597 -0.574200 0.000000 -35.527400 10.916583 -0.849194 -5.310820 2.770525 -29.284204 -35.863757 -2.550938 -6.151489 84.457282 -1.409971 -6.197479 4.455459 -0.908901 0.000000 -70.039101
2.074668 17.184576 0.849984 -45.988613 -77.958665 32.323805 -11.733239 2.084989 -0.302970 0.402643 13.325723 8.047731 -0.252650 0.424078 12.825164 2.327141 14.602560 -9.438607 -0.543100 0.000000 -36.060401 10.839107 -0.649593 -5.507229 3.826789 -29.362579 -38.798083 -2.844648 -6.436181 87.280939 -1.313463 -5.654767 3.108414 -0.717400 0.000000 -69.929400
2.108286 17.187512 0.864589 -47.272042 -77.583609 33.336301 -11.802273 2.007256 -0.403866 0.986656 13.390099 8.239189 -0.200295 0.452247 12.904679 2.298931 14.441533 -9.337275 -0.512400 -0.000000 -36.647099 10.724819 -0.441741 -5.736210 4.943639 -29.597219 -41.741771 -3.136157 -6.711557 89.872927 -1.220409 -5.117813 1.925602 -0.559900 0.000000 -69.665300
